<?xml version="1.0" encoding="UTF-8"?>
<svg id="Layer_2" data-name="Layer 2" xmlns="http://www.w3.org/2000/svg" viewBox="0 0 200 200">
  <defs>
    <style>
      .cls-1 {
        fill: #fb0000;
      }
    </style>
  </defs>
  <path class="cls-1" d="M163.55,60.14c-.32-2.11-2.13-3.74-4.33-3.74h-6.48c-2.15,0-3.94,1.55-4.31,3.6h-2.35c.11-.64.17-1.28.17-1.95v-10.3c0-6.56-5.32-11.88-11.88-11.88h-66.89c-6.56,0-11.88,5.32-11.88,11.88v10.3c0,.67.07,1.31.17,1.95h-3.76c-.37-2.05-2.16-3.6-4.31-3.6h-6.48c-2.19,0-4,1.61-4.33,3.72-9.98,1.06-17.75,9.5-17.75,19.76v64.05c0,10.98,8.9,19.87,19.87,19.87h46.27c.3,0,.5-.1.7-.3l1.5-1.5c1.1-1.1,1.8-2.4,1.8-3.6s-.5-2.5-1.2-3.4l-.92-1.2h-48.15c-5.44,0-9.87-4.43-9.87-9.87v-64.05c0-5.44,4.43-9.87,9.87-9.87h122.25c5.44,0,9.87,4.43,9.87,9.87v64.05c0,5.44-4.43,9.87-9.87,9.87h-26.7s-23.39,0-23.39,0l-5.27-3.25c-1.8-1.1-14.61-9.45-18.96-12.34-11.31-7.52-15.97-15.96-16.87-17.36-.8-1.4-2-4.5-2.6-6.7-.9-3.5-1-4.4-.6-7.4.3-1.8,1-4.6,1.7-6,.6-1.4,1.9-3.3,2.8-4.2.9-.9,2.4-2,3.4-2.5,1.2-.6,2.8-.9,4.8-.9,2.5,0,3.4.2,5.5,1.4,1.6.9,3.4,2.5,5,4.5,1.4,1.8,3.3,4.4,4.1,5.8.6,1,2,3,2.9,3.5.6.3,1.8.6,2.6.6s2.2-.5,3.1-1.2c1-.8,2-2.5,2.4-3.8.4-1.2,1.4-3.3,2.2-4.5s2.4-2.9,3.6-3.6c1.2-.8,3.3-1.8,4.5-2.1,1.3-.4,3.7-.7,5.2-.7,2,0,3.5.3,5.1,1.1,1.3.6,3.2,2.1,4.3,3.3,1.1,1.2,2.4,3.4,2.9,4.8.6,1.6,1,3.7.9,5.5,0,1.6-.3,4.1-.6,5.3-.4,1.3-1,3.3-1.4,4.3-.4,1-1.5,3-2.5,4.4-.9,1.4-3,3.9-4.5,5.5-1.6,1.6-4,3.9-5.5,5-1.5,1.1-4.8,3.3-7.4,4.9-2.4,1.4-5.3,3.3-6.1,3.9-.9.8-1.5,2-1.5,3.1s.1,1.9.4,2.5c.3.8,1.4,1.6,2.2,2.1.8.4,2.1.8,3,.8s4-1.4,5.3-2.2c2.1-1.1,5-2.9,6.4-3.9,1.4-1,4.2-3.1,6.1-4.7,2-1.6,4.7-4.2,6.1-5.8,1.4-1.6,3.4-4.3,4.6-6.1,1.2-1.8,2.9-5.3,3.8-7.8,1.2-3.4,1.7-5.8,1.9-9.5.2-3.8,0-5.7-.6-8.1-.5-1.7-1.7-4.6-2.7-6.5-1.1-2-3-4.6-4.6-6.2-1.5-1.5-4.4-3.4-6.3-4.3-3.3-1.6-4-1.7-9.3-1.7s-6.7.3-8.3.7c-1.4.4-3.6,1.2-4.9,1.9-1.3.6-3.4,2.1-4.8,3.3-1.3,1.2-2.9,2.9-3.6,3.9l-.4.6-1.5-1.9c-1.4-1.6-3.9-3.9-5.6-5.1-1.8-1.2-4.4-2.4-6-2.8-1.6-.4-4.9-.5-7.7-.4-4.1.2-5.5.5-8,1.7-1.7.8-4.1,2.6-5.5,4-1.4,1.4-3.1,3.5-3.9,4.8-.8,1.3-2,4.1-2.7,6.4-1.2,3.5-1.4,5-1.4,9.5s.3,6.3,1.4,9.5c.7,2.3,2.2,5.6,3.3,7.4,1.1,1.8,3.6,5.1,5.7,7.3,2.1,2.2,5.6,5.5,7.9,7.3,1.69,1.32,5.15,3.93,8.73,6.57h.07c1.28.94,2.57,1.89,3.8,2.78,4.7,3.4,10.5,7.6,12.9,9.5,1.6,1.2,4.9,3.6,5.9,3.8.34.08,2.19.29,5.72.32l6.71-.02c6.06.04,12.73.04,16.05,0h26.71c10.98,0,19.87-8.9,19.87-19.87v-64.05c0-10.21-7.7-18.61-17.6-19.74ZM136.26,58.05c0,1.04-.84,1.88-1.88,1.88h-66.89c-1.04,0-1.88-.84-1.88-1.88v-10.3c0-1.04.84-1.88,1.88-1.88h66.89c1.04,0,1.88.84,1.88,1.88v10.3Z"/>
</svg>