<?xml version="1.0" encoding="UTF-8" standalone="no"?>
<!-- Created with Inkscape (http://www.inkscape.org/) -->

<svg
   width="75mm"
   height="75mm"
   viewBox="0 0 74.999998 74.999995"
   version="1.1"
   id="svg21"
   xml:space="preserve"
   xmlns:xlink="http://www.w3.org/1999/xlink"
   xmlns="http://www.w3.org/2000/svg"
   xmlns:svg="http://www.w3.org/2000/svg"><defs
     id="defs18"><linearGradient
       id="linearGradient4181"><stop
         style="stop-color:#fb0000;stop-opacity:1;"
         offset="0"
         id="stop4179" /></linearGradient><linearGradient
       id="linearGradient1413"><stop
         style="stop-color:#fb0000;stop-opacity:1;"
         offset="0"
         id="stop1411" /></linearGradient><linearGradient
       xlink:href="#linearGradient4181"
       id="linearGradient4183"
       x1="76.232155"
       y1="160.25787"
       x2="133.5226"
       y2="160.25787"
       gradientUnits="userSpaceOnUse" /></defs><g
     id="layer1"
     transform="translate(-76.232155,-137.69363)"><g
       id="g296"
       transform="translate(10.304862,15.36824)"><path
         style="fill:url(#linearGradient4183);fill-opacity:1;stroke:#fb0000;stroke-width:0.7;stroke-linecap:round;stroke-linejoin:round;stroke-dasharray:none;stroke-opacity:1;paint-order:normal"
         d="m 81.793617,182.27944 c -0.432166,-0.0847 -1.204041,-0.35867 -1.715276,-0.6088 -0.549977,-0.26908 -1.285612,-0.8543 -1.801611,-1.43323 -0.530308,-0.595 -1.033263,-1.40305 -1.283334,-2.06181 l -0.411241,-1.08334 v -12.7 -12.7 l 0.406356,-1.0057 c 0.223496,-0.55314 0.771429,-1.41176 1.217629,-1.90804 0.446201,-0.49628 1.215841,-1.13431 1.710312,-1.41784 0.494469,-0.28353 1.339737,-0.60293 1.87837,-0.70978 0.719183,-0.14267 1.023747,-0.2946 1.146528,-0.57194 0.09196,-0.20771 0.365631,-0.48183 0.608166,-0.60914 0.315877,-0.16582 0.840375,-0.19978 1.848901,-0.11973 0.774361,0.0615 1.542891,0.18398 1.707847,0.27226 0.164953,0.0883 0.350327,0.31934 0.411942,0.51347 0.09394,0.29597 0.266772,0.35297 1.07028,0.35297 h 0.958252 l 0.0039,-2.68993 c 0.0032,-2.22067 0.05993,-2.81302 0.325209,-3.39549 0.176734,-0.38806 0.646306,-0.99855 1.043493,-1.35665 0.397189,-0.3581 1.024751,-0.73938 1.394584,-0.84729 0.473556,-0.13817 4.384851,-0.18036 13.225046,-0.14266 l 12.55263,0.0535 0.75981,0.5341 c 0.41789,0.29375 1.00014,0.87582 1.2939,1.29349 l 0.53408,0.7594 0.0593,2.89574 0.0593,2.89575 h 0.69038 c 0.49608,0 0.69038,-0.0745 0.69038,-0.26459 0,-0.14552 0.15875,-0.42333 0.35278,-0.61736 0.30207,-0.30208 0.58796,-0.35278 1.98922,-0.35278 1.19563,0 1.74205,0.074 2.02847,0.27459 0.21562,0.15102 0.39203,0.41125 0.39203,0.57829 0,0.22734 0.30218,0.38156 1.2018,0.6133 0.66099,0.17028 1.6013,0.57863 2.08958,0.90746 0.48828,0.32883 1.11109,0.86194 1.38403,1.18469 0.27294,0.32275 0.6847,0.99672 0.91503,1.49771 0.24125,0.52475 0.48147,1.49681 0.56668,2.29306 0.0814,0.76018 0.0985,6.70028 0.0381,13.20021 l -0.10981,11.81806 -0.47909,0.9755 c -0.2635,0.53653 -0.76388,1.30822 -1.11196,1.71487 -0.40545,0.47367 -1.11726,0.97882 -1.98087,1.40574 l -1.348,0.66639 -10.32821,0.0522 c -5.68052,0.0287 -10.49636,0.01 -10.70186,-0.0416 -0.20551,-0.0516 -1.07864,-0.63196 -1.9403,-1.28973 -0.86166,-0.65777 -2.91746,-2.16575 -4.56846,-3.35106 -1.651,-1.18531 -3.648652,-2.67265 -4.439227,-3.30519 -0.790647,-0.63254 -2.020675,-1.77783 -2.733466,-2.54508 -0.712793,-0.76725 -1.594515,-1.89801 -1.959384,-2.5128 -0.364869,-0.61479 -0.867908,-1.75279 -1.117861,-2.52891 -0.364455,-1.13163 -0.456768,-1.77792 -0.466106,-3.26319 -0.0099,-1.57258 0.06044,-2.06211 0.466028,-3.24382 0.262717,-0.76545 0.685804,-1.74689 0.940188,-2.18096 0.254385,-0.43408 0.842493,-1.16921 1.30691,-1.63362 0.464416,-0.46442 1.300382,-1.06749 1.857704,-1.34016 0.836761,-0.40939 1.303892,-0.50848 2.681064,-0.56871 0.941675,-0.0412 2.077914,0.0189 2.609874,0.1379 0.529826,0.11857 1.411666,0.52438 2.015066,0.92731 0.59011,0.39407 1.45074,1.17047 1.91252,1.72535 l 0.83958,1.00886 0.41368,-0.60373 c 0.22753,-0.33206 0.77658,-0.92381 1.22012,-1.315 0.44354,-0.3912 1.16363,-0.88888 1.60019,-1.10595 0.43656,-0.21706 1.19062,-0.50645 1.67569,-0.64308 0.51522,-0.14513 1.68874,-0.24842 2.82223,-0.24842 1.81715,0 2.01592,0.0358 3.1324,0.5647 0.65567,0.31059 1.6205,0.96984 2.14406,1.465 0.54898,0.5192 1.21363,1.40014 1.57017,2.08113 0.34004,0.64946 0.75532,1.65533 0.92285,2.23526 0.23676,0.81957 0.2817,1.4304 0.20176,2.74251 -0.0773,1.2697 -0.24266,2.0745 -0.66694,3.24707 -0.31026,0.85743 -0.89949,2.05912 -1.30942,2.67042 -0.40992,0.61131 -1.13039,1.5622 -1.60102,2.11309 -0.47064,0.55088 -1.41367,1.45199 -2.09562,2.00246 -0.68195,0.55046 -1.64531,1.28705 -2.14079,1.63686 -0.49549,0.34981 -1.49445,0.96178 -2.21991,1.35994 -0.72547,0.39816 -1.49479,0.72392 -1.70962,0.72392 -0.21482,0 -0.61515,-0.11612 -0.88961,-0.25805 -0.27447,-0.14194 -0.54834,-0.38656 -0.60861,-0.5436 -0.0603,-0.15704 -0.10957,-0.50333 -0.10957,-0.76952 0,-0.2803 0.16704,-0.63178 0.39688,-0.83512 0.21828,-0.19312 1.16052,-0.79979 2.09387,-1.34816 0.93334,-0.54838 2.12397,-1.33305 2.64583,-1.74372 0.52186,-0.41066 1.4083,-1.22311 1.96985,-1.80543 0.56156,-0.58232 1.2995,-1.47833 1.63987,-1.99112 0.34037,-0.51279 0.74516,-1.23079 0.89953,-1.59555 0.15436,-0.36476 0.38782,-1.06007 0.5188,-1.54514 0.13097,-0.48507 0.23907,-1.37506 0.24022,-1.97776 0.001,-0.67462 -0.13576,-1.46427 -0.35656,-2.05442 -0.19726,-0.52723 -0.69033,-1.3354 -1.09571,-1.79594 -0.41489,-0.47134 -1.12548,-1.01821 -1.62572,-1.25115 -0.62273,-0.28998 -1.20898,-0.41433 -1.95908,-0.41554 -0.58873,-8.8e-4 -1.46544,0.11559 -1.94825,0.25897 -0.48282,0.14338 -1.24524,0.50404 -1.69429,0.80148 -0.44904,0.29743 -1.06151,0.9227 -1.36104,1.38948 -0.29953,0.46678 -0.67027,1.21751 -0.82387,1.66829 -0.1536,0.45078 -0.4809,0.97821 -0.72733,1.17205 -0.24644,0.19385 -0.64102,0.35245 -0.87685,0.35245 -0.23583,0 -0.57472,-0.0781 -0.7531,-0.17357 -0.17837,-0.0955 -0.57951,-0.59155 -0.89142,-1.10243 -0.3119,-0.51087 -0.98209,-1.44545 -1.48931,-2.07683 -0.59831,-0.74479 -1.25688,-1.33244 -1.875105,-1.6732 -0.78479,-0.43257 -1.155171,-0.52474 -2.099428,-0.52246 -0.764809,0.002 -1.37576,0.11476 -1.835045,0.33913 -0.378684,0.18499 -0.964487,0.61232 -1.301783,0.94962 -0.337296,0.33729 -0.81244,1.04832 -1.055876,1.58005 -0.243436,0.53174 -0.522748,1.53079 -0.620692,2.22012 -0.154245,1.08558 -0.127231,1.45302 0.201835,2.74545 0.208952,0.82067 0.637503,1.93192 0.952334,2.46944 0.314832,0.53753 1.286796,1.70245 2.159921,2.58871 0.873125,0.88626 1.865312,1.73935 2.204861,1.89576 0.339549,0.15641 1.201603,0.71359 1.915678,1.23818 0.71408,0.52459 1.5872,1.22601 1.94028,1.55872 0.35308,0.3327 1.35633,1.11906 2.22945,1.74745 0.87313,0.62839 2.09747,1.45512 2.72076,1.83718 l 1.13326,0.69466 h 9.64029 9.6403 l 0.85442,-0.52917 c 0.56373,-0.34913 0.99527,-0.79586 1.26841,-1.31304 l 0.414,-0.78388 -0.0475,-12.47429 -0.0475,-12.47429 -0.53078,-0.75511 c -0.30906,-0.43968 -0.8743,-0.9319 -1.35313,-1.17831 l -0.82236,-0.4232 -8.17186,0.0608 c -4.49453,0.0334 -10.35156,0.0488 -13.01563,0.0341 -4.76857,-0.0262 -4.84867,-0.0327 -5.15938,-0.41642 -0.17358,-0.21437 -0.3156,-0.61333 -0.3156,-0.88658 0,-0.31944 0.15695,-0.62028 0.43961,-0.84262 0.41927,-0.3298 0.81492,-0.34882 8.54742,-0.41106 6.32233,-0.0509 8.15801,-0.11546 8.33574,-0.29319 0.16448,-0.16448 0.22792,-0.91169 0.22792,-2.68453 0,-2.44965 -0.001,-2.45801 -0.48908,-2.9457 l -0.48908,-0.48908 h -12.0931 -12.093093 l -0.514697,0.57605 -0.514698,0.57605 v 3.40605 c 0,3.36161 -0.0055,3.41121 -0.420839,3.80141 -0.40622,0.38163 -0.570149,0.39843 -4.718403,0.48362 -3.2022,0.0658 -4.488158,0.15619 -5.045348,0.35482 -0.434312,0.15482 -0.995495,0.55595 -1.338693,0.9569 -0.325,0.37969 -0.683029,0.99781 -0.795618,1.37361 -0.146342,0.48844 -0.204709,3.98704 -0.204709,12.27045 0,8.2486 0.05934,11.82284 0.205937,12.40504 0.139298,0.5532 0.438965,1.05053 0.926042,1.53688 0.40873,0.40811 1.034037,0.81282 1.446124,0.93594 0.531142,0.15871 3.025207,0.21693 9.291711,0.21693 h 8.565691 l 0.365583,0.46476 c 0.20107,0.25562 0.36558,0.69829 0.36558,0.98371 0,0.33839 -0.1794,0.69834 -0.5156,1.03455 l -0.515598,0.5156 -8.524334,-0.0193 c -4.688381,-0.0106 -8.877922,-0.0886 -9.310091,-0.17336 z m 17.635252,-0.36443 c 0.292742,-0.10205 0.609961,-0.33073 0.704921,-0.50818 0.095,-0.17744 0.17267,-0.44691 0.17267,-0.59881 0,-0.1519 -0.15875,-0.43493 -0.352778,-0.62895 -0.343119,-0.34312 -0.590652,-0.35289 -9.03993,-0.35665 -8.023105,-0.004 -8.741085,-0.0284 -9.392708,-0.32521 -0.388056,-0.17674 -0.997929,-0.64563 -1.355275,-1.04198 -0.357347,-0.39635 -0.733935,-1.02391 -0.836865,-1.39458 -0.123688,-0.44543 -0.186163,-4.77085 -0.184253,-12.75658 0.0027,-11.34282 0.02271,-12.12585 0.326549,-12.7882 0.178012,-0.38806 0.55226,-0.93182 0.831661,-1.20836 0.279402,-0.27654 0.786857,-0.6427 1.127676,-0.81368 0.523086,-0.26243 1.303078,-0.32638 5.004207,-0.41026 4.201252,-0.0952 4.401756,-0.11555 4.796513,-0.48641 0.400913,-0.37663 0.413433,-0.48111 0.466159,-3.88993 l 0.05418,-3.5029 0.489013,-0.48867 0.489012,-0.48868 12.168789,-0.0477 c 10.66484,-0.0418 12.23357,-0.0141 12.69306,0.22347 0.28836,0.14912 0.6447,0.50396 0.79186,0.78854 0.19892,0.38467 0.26757,1.10588 0.26757,2.81094 0,1.3771 -0.0826,2.47472 -0.20663,2.74702 -0.11364,0.24942 -0.37161,0.49266 -0.57326,0.54053 -0.20165,0.0479 -3.96833,0.11038 -8.3704,0.13893 -7.59616,0.0493 -8.01611,0.0688 -8.24618,0.38343 -0.13333,0.18233 -0.24242,0.38693 -0.24242,0.45466 0,0.0677 0.14259,0.29922 0.31686,0.51444 l 0.31686,0.3913 7.66474,-0.0631 c 4.2156,-0.0347 10.04599,-0.035 12.9564,-7e-4 4.10756,0.0484 5.42981,0.11958 5.90903,0.31804 0.33955,0.14061 0.84291,0.46973 1.11858,0.73138 0.27568,0.26164 0.67255,0.79321 0.88195,1.18126 0.37976,0.70379 0.38072,0.73684 0.38072,13.14098 v 12.43541 l -0.38914,0.72747 c -0.21403,0.4001 -0.65059,0.94791 -0.97014,1.21735 -0.31955,0.26944 -0.83642,0.59693 -1.1486,0.72775 -0.45241,0.18957 -2.49732,0.23784 -10.07672,0.23784 -7.97533,0 -9.60506,-0.0418 -10.10393,-0.25909 -0.32714,-0.14249 -1.27712,-0.71796 -2.11107,-1.27882 -0.83395,-0.56085 -1.98488,-1.37113 -2.55764,-1.80062 -0.57275,-0.4295 -1.09943,-0.87622 -1.17038,-0.99272 -0.071,-0.1165 -0.84987,-0.71759 -1.73092,-1.33577 -0.881046,-0.61817 -1.851513,-1.26093 -2.156589,-1.42835 -0.305077,-0.16742 -1.331555,-1.07835 -2.28106,-2.0243 -1.19885,-1.19435 -1.914348,-2.07761 -2.34155,-2.89058 -0.338347,-0.64388 -0.743804,-1.71732 -0.901012,-2.38543 -0.193638,-0.82292 -0.254023,-1.613 -0.187212,-2.44946 0.05424,-0.6791 0.180045,-1.51362 0.279562,-1.8545 0.09952,-0.34088 0.440357,-1.05201 0.757421,-1.58028 0.317064,-0.52828 0.917162,-1.21956 1.333551,-1.53618 0.416389,-0.31663 1.091077,-0.66607 1.499306,-0.77655 0.408229,-0.11047 1.23517,-0.16171 1.837646,-0.11387 0.736556,0.0585 1.343293,0.23368 1.852083,0.53476 0.416174,0.24627 1.085694,0.79145 1.487824,1.2115 0.40213,0.42005 1.14387,1.38402 1.64831,2.14214 0.50443,0.75813 1.10482,1.46392 1.33419,1.56842 0.32292,0.14714 0.51069,0.12865 0.83201,-0.0819 0.22823,-0.14954 0.50857,-0.57752 0.62296,-0.95106 0.11439,-0.37354 0.44415,-1.08836 0.73281,-1.5885 0.28865,-0.50014 0.8771,-1.19801 1.30766,-1.55082 0.43057,-0.35282 1.24553,-0.8041 1.81102,-1.00286 0.80987,-0.28464 1.34714,-0.34766 2.53042,-0.29678 1.02082,0.0439 1.72648,0.17433 2.20195,0.40704 0.38484,0.18835 0.98761,0.63036 1.3395,0.98224 0.35188,0.35188 0.8903,1.1411 1.19647,1.75381 0.49714,0.99487 0.55669,1.27883 0.55669,2.65478 0,1.03474 -0.11397,1.9089 -0.34702,2.66175 -0.19085,0.61656 -0.69773,1.7064 -1.12639,2.42187 -0.42866,0.71548 -1.12579,1.65865 -1.54917,2.09595 -0.42338,0.4373 -1.16666,1.12921 -1.65173,1.53758 -0.48507,0.40837 -1.41736,1.11222 -2.07177,1.56412 -0.6544,0.4519 -1.22562,0.82163 -1.26937,0.82163 -0.0437,0 -0.55496,0.27864 -1.13602,0.61919 -0.58106,0.34055 -1.10783,0.781 -1.1706,0.97877 -0.0662,0.2085 0.001,0.53563 0.16038,0.77855 0.15098,0.23043 0.43344,0.4694 0.62769,0.53105 0.23529,0.0747 0.86982,-0.15546 1.90088,-0.68944 0.85124,-0.44084 2.23381,-1.31768 3.07238,-1.94852 0.83858,-0.63084 2.21529,-1.88061 3.05936,-2.77726 1.24657,-1.32423 1.6974,-1.96343 2.40144,-3.40488 0.47673,-0.97602 0.98379,-2.32702 1.12682,-3.0022 0.14303,-0.67519 0.26143,-1.62766 0.26311,-2.1166 0.002,-0.48894 -0.11848,-1.3556 -0.26702,-1.92591 -0.14855,-0.57031 -0.50883,-1.48486 -0.80063,-2.03233 -0.2918,-0.54746 -0.87702,-1.39147 -1.30049,-1.87557 -0.4781,-0.54654 -1.19425,-1.09425 -1.88931,-1.44494 -0.61564,-0.31062 -1.59365,-0.65119 -2.17335,-0.75682 -0.60212,-0.10972 -1.5474,-0.13925 -2.20486,-0.0689 -0.63297,0.0677 -1.58935,0.25962 -2.12529,0.42638 -0.53593,0.16675 -1.42249,0.58982 -1.97012,0.94014 -0.55009,0.35189 -1.32732,1.07616 -1.7367,1.61838 -0.40755,0.5398 -0.81834,0.98145 -0.91288,0.98145 -0.0945,0 -0.71505,-0.58162 -1.37891,-1.29248 -0.76689,-0.82117 -1.61305,-1.51261 -2.32047,-1.89618 -1.076126,-0.58347 -1.178571,-0.6037 -3.057422,-0.6037 -1.840475,0 -2.006573,0.0308 -3.119405,0.57865 -0.760169,0.37423 -1.469404,0.9039 -2.007586,1.49931 -0.457692,0.50636 -1.055501,1.3969 -1.328462,1.97898 -0.272964,0.58209 -0.62664,1.57009 -0.785947,2.19558 -0.207252,0.81372 -0.267314,1.61658 -0.211129,2.82222 0.05167,1.10868 0.213609,2.07712 0.473481,2.83151 0.217227,0.63059 0.751747,1.72198 1.187826,2.42531 0.436077,0.70333 1.442081,1.93546 2.235567,2.73807 0.793483,0.80261 2.395198,2.1766 3.559365,3.05331 1.164167,0.87672 3.148542,2.32155 4.409722,3.21075 1.26118,0.88919 2.87923,2.07506 3.59568,2.63526 l 1.30262,1.01855 h 10.33904 10.33905 l 1.0057,-0.40636 c 0.55314,-0.22349 1.41081,-0.77058 1.90594,-1.21574 0.49513,-0.44516 1.08623,-1.17645 1.31357,-1.62507 0.22733,-0.44863 0.49727,-1.13185 0.59985,-1.51829 0.1209,-0.45542 0.19745,-4.95335 0.2176,-12.78524 0.0281,-10.94446 0.003,-12.17862 -0.27071,-13.10153 -0.16598,-0.5604 -0.58621,-1.39153 -0.93385,-1.84695 -0.34763,-0.45543 -0.7978,-0.9712 -1.00036,-1.14616 -0.20256,-0.17496 -0.72987,-0.50811 -1.17179,-0.74035 -0.44192,-0.23223 -1.11661,-0.47888 -1.49931,-0.54809 -0.38269,-0.0692 -0.83472,-0.19757 -1.00449,-0.28523 -0.16977,-0.0877 -0.30868,-0.26334 -0.30868,-0.39042 0,-0.12707 -0.14888,-0.36577 -0.33084,-0.53045 -0.26701,-0.24163 -0.61588,-0.28945 -1.80799,-0.24782 -1.47356,0.0515 -1.47778,0.053 -1.74173,0.62103 -0.25214,0.54267 -0.31156,0.56963 -1.26364,0.57327 l -0.99906,0.004 -0.0593,-2.86632 c -0.0572,-2.76449 -0.0767,-2.89592 -0.54903,-3.69948 -0.31759,-0.54028 -0.78265,-1.00533 -1.32292,-1.32292 l -0.83316,-0.48976 -12.13456,-0.0488 c -7.884225,-0.0317 -12.369625,0.0145 -12.805652,0.13192 -0.369097,0.0994 -0.941043,0.35955 -1.270991,0.57814 -0.348846,0.23111 -0.802906,0.79814 -1.084975,1.35492 -0.466395,0.92063 -0.485069,1.06153 -0.485069,3.65989 v 2.70239 h -1.228517 c -1.094497,0 -1.251315,-0.0433 -1.437517,-0.39687 -0.114951,-0.21828 -0.296337,-0.45519 -0.40308,-0.52647 -0.106745,-0.0713 -0.895507,-0.1308 -1.752805,-0.13229 l -1.558725,-0.003 -0.199438,0.52837 c -0.15536,0.4116 -0.337153,0.55129 -0.822526,0.63203 -0.342697,0.057 -1.008306,0.22522 -1.47913,0.37379 -0.470824,0.14858 -1.264574,0.60244 -1.763889,1.00858 -0.631948,0.51402 -1.095463,1.10549 -1.525206,1.94622 l -0.617361,1.20779 -0.04747,12.74639 c -0.04678,12.56018 -0.04209,12.76079 0.321491,13.73253 0.202931,0.54238 0.668784,1.36545 1.035229,1.82904 0.42473,0.53732 1.070506,1.05834 1.781353,1.43722 0.648238,0.34551 1.527038,0.64822 2.099049,0.72303 0.541179,0.0708 4.49659,0.13401 8.7898,0.14051 5.036647,0.008 7.994662,-0.054 8.338099,-0.17372 z"
         id="path877" /><path
         style="fill:#fb0000;fill-opacity:1;stroke:#fb0000;stroke-width:1.51181;stroke-linecap:round;stroke-linejoin:round;stroke-dasharray:none;stroke-opacity:1;paint-order:normal"
         d="m 314.13946,686.10419 c -4.58487,-0.3488 -6.2914,-0.76569 -9.1871,-2.24434 -4.59784,-2.34782 -7.55908,-5.27744 -9.93951,-9.83335 l -1.91481,-3.66476 -0.171,-48.4292 -0.17099,-48.42921 1.44952,-2.84072 c 3.74818,-7.34553 8.24807,-11.11808 15.69967,-13.16207 4.7032,-1.29009 5.76898,-1.90691 6.32571,-3.66101 0.31707,-0.99899 0.96356,-1.13253 5.50558,-1.13725 4.99481,-0.005 5.18994,0.047 6.62811,1.77076 1.31268,1.57341 1.96527,1.81984 5.71833,2.15933 2.3301,0.21077 4.90986,0.21423 5.7328,0.008 l 1.49625,-0.37554 0.19436,-11.16245 0.19437,-11.16245 1.78103,-2.91486 c 1.33669,-2.18763 2.58317,-3.3215 4.99619,-4.54481 l 3.21516,-1.62997 h 46.22185 46.22185 l 2.88528,1.85148 c 1.7448,1.11963 3.51827,2.9316 4.48668,4.58405 1.54359,2.63396 1.61247,3.12641 1.90833,13.64462 0.25493,9.06301 0.46523,11.01156 1.24106,11.49937 0.56211,0.35342 2.52987,0.41644 4.94096,0.15823 3.74637,-0.4012 4.08438,-0.56052 5.19976,-2.45096 l 1.19293,-2.02186 h 4.921 4.92099 l 1.20176,2.03684 c 1.02696,1.74057 1.83295,2.22228 5.54117,3.31183 2.38667,0.70126 5.42163,1.89961 6.74436,2.66302 3.35737,1.9377 7.19435,6.28334 9.05793,10.25869 l 1.57687,3.36375 -0.0324,47.41728 -0.0324,47.41728 -1.39833,3.55398 c -1.9547,4.96804 -6.7306,9.85255 -12.21071,12.48837 l -4.23198,2.03548 h -38.21256 -38.21257 l -3.51171,-2.73493 c -1.93145,-1.50421 -10.04641,-7.48136 -18.03326,-13.28256 -7.98685,-5.8012 -17.15071,-12.74718 -20.36414,-15.43553 -10.48435,-8.77117 -17.4009,-18.34745 -19.72259,-27.30685 -1.35822,-5.24137 -1.35394,-14.61928 0.009,-19.15129 2.58625,-8.60141 8.05106,-15.81037 14.43872,-19.04698 3.09394,-1.5677 4.06609,-1.74761 10.41659,-1.92779 6.70825,-0.19033 7.14492,-0.12772 10.3354,1.48179 1.92558,0.9714 5.7771,3.99397 9.12768,7.16314 3.18805,3.01544 6.2249,5.48262 6.74855,5.48262 0.52365,0 1.93279,-1.13357 3.13141,-2.51904 4.05255,-4.68429 6.90668,-7.0742 10.80039,-9.04372 5.00323,-2.53073 9.89447,-3.46422 16.49744,-3.14853 4.63823,0.22175 5.85536,0.52774 9.74419,2.4497 7.78153,3.84585 14.2239,12.90758 15.79387,22.2154 1.24587,7.38637 -1.41777,17.47947 -7.1924,27.25349 -2.99618,5.07128 -13.98841,15.78716 -20.94097,20.4145 -7.8964,5.25554 -13.64429,7.95824 -14.83077,6.97356 -0.48191,-0.39995 -0.86782,-1.16129 -0.85758,-1.69186 0.0215,-1.11582 1.06805,-1.922 6.87013,-5.29249 9.53512,-5.53906 19.15253,-13.66632 23.63574,-19.97355 5.86916,-8.25706 8.09476,-14.72829 8.14985,-23.69685 0.0359,-5.84054 -0.0607,-6.32893 -2.09949,-10.62215 -2.36733,-4.98492 -6.39603,-9.46325 -10.19899,-11.33725 -2.00461,-0.98782 -3.60698,-1.16831 -10.37253,-1.16831 h -8.00166 l -4.37288,2.33588 c -5.24869,2.80371 -8.12522,6.14209 -11.3936,13.22292 -1.38999,3.01137 -2.60556,4.8899 -3.16418,4.8899 -0.49889,0 -3.19394,-3.05987 -5.98897,-6.79973 -8.40444,-11.24541 -11.67235,-13.44244 -20.57249,-13.83097 -5.33389,-0.23284 -6.02958,-0.13029 -9.01083,1.3283 -3.99351,1.95385 -7.97311,6.28231 -10.50563,11.42657 -1.75158,3.55798 -1.92955,4.45429 -2.15828,10.86972 -0.28193,7.90742 0.75716,12.61425 4.24465,19.22723 3.0238,5.73372 12.66605,15.23333 21.90642,21.58232 4.30303,2.95659 8.4905,5.99193 9.30548,6.74521 4.44287,4.10646 17.05526,13.01355 22.52321,15.90628 l 2.66722,1.41105 h 37.34111 c 37.16035,0 37.35271,-0.006 39.73861,-1.28365 1.31862,-0.70601 3.49646,-2.47589 4.83963,-3.93305 4.66394,-5.05978 4.32382,-0.88713 4.29501,-52.69185 -0.0142,-25.5252 -0.24911,-47.56491 -0.52202,-48.97714 -0.64028,-3.31316 -3.30774,-7.02375 -6.7295,-9.36112 -2.21905,-1.51581 -3.55513,-1.93269 -7.34903,-2.29301 -2.5503,-0.24221 -25.10368,-0.4185 -50.11862,-0.39177 -43.79078,0.0468 -45.50369,0.008 -46.07281,-1.05586 -0.45716,-0.8542 -0.35853,-1.19737 0.4353,-1.51447 0.56452,-0.22551 14.09578,-0.54369 30.06948,-0.70706 15.97369,-0.16338 30.06347,-0.5547 31.3106,-0.86959 3.57153,-0.9018 4.07282,-2.78672 3.84674,-14.46441 -0.2091,-10.8009 -0.59611,-11.96353 -4.6746,-14.0432 -1.88392,-0.96064 -5.44244,-1.0364 -48.71746,-1.03726 l -46.68509,-9.2e-4 -2.21398,2.02726 -2.21398,2.02725 -0.29636,13.36285 c -0.25789,11.62866 -0.42949,13.49589 -1.32222,14.38805 -0.88907,0.88851 -3.26,1.11449 -17.78148,1.69476 -18.73527,0.74866 -19.35496,0.89067 -23.65471,5.42068 -4.70916,4.96134 -4.3625,0.65955 -4.3625,54.13556 0,46.35273 0.0335,47.78125 1.1731,50.0845 1.50173,3.03502 5.27541,6.80868 8.31035,8.31029 2.25318,1.11483 4.01014,1.18777 35.39444,1.46947 30.45509,0.27335 33.10437,0.37726 34.06235,1.33601 0.98993,0.99072 0.97619,1.10221 -0.29214,2.37087 l -1.33091,1.33125 -27.69335,0.0838 c -15.23134,0.0461 -30.22721,-0.10903 -33.32415,-0.34463 z"
         id="path4254"
         transform="scale(0.26458333)" /></g></g></svg>
